<svg xmlns="http://www.w3.org/2000/svg" width="349.902" height="314.648" viewBox="0 0 349.902 314.648">
  <g id="activebytes" transform="translate(587 133.083)">
    <path id="Path_68" data-name="Path 68" d="M261.294,146.675c-10.734.034-21.481-.21-32.207.16-19.835.685-37.578,7.45-53.327,19.461a93.149,93.149,0,0,0-22.653,25.126c-21.158,33.983-42.219,68.021-63.544,101.9C79.044,310.028,63.45,317.6,43.855,316.23,22.038,314.706,3.77,297.139.561,275.427a47.919,47.919,0,0,1,7.1-33.366Q48.729,176.125,89.807,110.2c15.2-24.408,30.237-48.921,45.667-73.191C147.64,17.869,165.211,6.488,187.612,2.842a71.238,71.238,0,0,1,48.611,8.832c14.417,8.429,22.548,21.3,24.79,37.881a39.208,39.208,0,0,1,.332,5.287q.019,45.854-.008,91.707Z" transform="translate(-587 -134.888)" fill="#f6921e"/>
    <path id="Path_69" data-name="Path 69" d="M62.222,36.551l.042-.126c9.873.034,19.78-.617,29.62.256,22.724,2.02,39.741,13.267,51.063,32.971a60.341,60.341,0,0,1,7.883,30.615q-.031,31.025,0,62.049a44.309,44.309,0,0,1-87.663,8.87,41.218,41.218,0,0,1-.945-8.706q.013-62.963,0-125.93" transform="translate(-387.928 -24.764)" fill="#3d2e4a"/>
    <path id="Path_70" data-name="Path 70" d="M130.478,43.352a30.951,30.951,0,1,1-31-31.044,30.877,30.877,0,0,1,31,31.044" transform="translate(-367.585 -101.283)" fill="#3d2e4a"/>
    <path id="Path_71" data-name="Path 71" d="M72.52,107.585A31.08,31.08,0,0,1,41.573,76.579c0-17.395,14.069-31.081,31.85-30.989,16.589.088,30.212,14.249,30.157,31.35a30.989,30.989,0,0,1-31.06,30.645" transform="translate(-453.984 5.207)" fill="#3d2e4a"/>
  </g>
</svg>
