<svg xmlns="http://www.w3.org/2000/svg" width="274.078" height="51.735" viewBox="0 0 274.078 51.735">
  <g id="Group_6" data-name="Group 6" transform="translate(-2383 -1095.692)">
    <g id="Group_4" data-name="Group 4" transform="translate(2383 1103.908)">
      <path id="Path_30" data-name="Path 30" d="M19.966,36.571A4.838,4.838,0,1,0,24.8,31.733a4.844,4.844,0,0,0-4.839,4.838" transform="translate(-4.15 -14.811)" fill="#fff"/>
      <path id="Path_31" data-name="Path 31" d="M65.816,36.571a4.838,4.838,0,1,0-4.839,4.838,4.844,4.844,0,0,0,4.839-4.838" transform="translate(-11.668 -14.811)" fill="#fff"/>
      <path id="Path_32" data-name="Path 32" d="M0,32.131A21.784,21.784,0,0,0,21.759,53.891h11.3V47.4h-11.3a15.269,15.269,0,1,1,0-30.537h11.3v-6.49h-11.3A21.784,21.784,0,0,0,0,32.131" transform="translate(0 -10.372)" fill="#f6921e"/>
      <path id="Path_33" data-name="Path 33" d="M57.89,10.373h-11.3v6.489h11.3a15.269,15.269,0,0,1,0,30.537h-11.3v6.491h11.3a21.759,21.759,0,1,0,0-43.518" transform="translate(-9.684 -10.372)" fill="#f6921e"/>
    </g>
    <path id="Path_34" data-name="Path 34" d="M135.956,39.409a14.789,14.789,0,0,1-4.838,10.225Q126.9,53.306,119.894,53.3a15.971,15.971,0,0,1-8.622-2.321,15.218,15.218,0,0,1-5.752-6.6,23.783,23.783,0,0,1-2.11-9.93V30.633a23.978,23.978,0,0,1,2.053-10.211,15.479,15.479,0,0,1,5.894-6.807,16.437,16.437,0,0,1,8.875-2.391q6.778,0,10.914,3.671t4.81,10.393h-7.088q-.506-4.416-2.574-6.371t-6.062-1.954a8.311,8.311,0,0,0-7.131,3.392q-2.489,3.394-2.545,9.954V33.94q0,6.645,2.377,10.136a7.888,7.888,0,0,0,6.962,3.491q4.19,0,6.3-1.885t2.672-6.272Z" transform="translate(2361.508 1093.359)" fill="#fff"/>
    <path id="Path_35" data-name="Path 35" d="M164.84,31.343l9.424-19.409h7.876L168.412,37.813V52.89h-7.145V37.813L147.512,11.934h7.9Z" transform="translate(2352.343 1093.212)" fill="#fff"/>
    <path id="Path_36" data-name="Path 36" d="M196.834,52.89V11.934H210.87q6.948,0,10.576,2.785t3.629,8.3a8.843,8.843,0,0,1-1.519,5.063,9.777,9.777,0,0,1-4.445,3.488,9.044,9.044,0,0,1,5.134,3.39,9.878,9.878,0,0,1,1.814,5.978q0,5.767-3.7,8.86T211.77,52.89Zm7.117-23.712h6.976a8.065,8.065,0,0,0,5.19-1.506,5.154,5.154,0,0,0,1.871-4.261,5.227,5.227,0,0,0-1.73-4.389q-1.73-1.35-5.387-1.35h-6.92Zm0,5.231v12.8h7.9a7.654,7.654,0,0,0,5.232-1.659,5.828,5.828,0,0,0,1.884-4.614q0-6.386-6.525-6.526Z" transform="translate(2342.092 1093.212)" fill="#fff"/>
    <path id="Path_37" data-name="Path 37" d="M275.058,33.333A25.118,25.118,0,0,1,272.976,43.9a15.739,15.739,0,0,1-5.949,6.977,17.454,17.454,0,0,1-17.777,0,15.968,15.968,0,0,1-6.02-6.934,24.323,24.323,0,0,1-2.152-10.38V31.252A24.9,24.9,0,0,1,243.2,20.675a15.965,15.965,0,0,1,5.991-7.019,17.491,17.491,0,0,1,17.75-.028,15.762,15.762,0,0,1,5.977,6.92,24.86,24.86,0,0,1,2.138,10.507ZM267.941,31.2q0-6.806-2.574-10.435a9.081,9.081,0,0,0-14.514-.014q-2.6,3.615-2.659,10.225v2.363q0,6.752,2.63,10.436a8.466,8.466,0,0,0,7.3,3.684,8.37,8.37,0,0,0,7.272-3.6q2.545-3.6,2.545-10.52Z" transform="translate(2332.897 1093.359)" fill="#fff"/>
    <path id="Path_38" data-name="Path 38" d="M318.735,17.672H305.964V52.89H298.9V17.672H286.245V11.934h32.489Z" transform="translate(2323.51 1093.212)" fill="#fff"/>
    <path id="Path_39" data-name="Path 39" d="M334.856.729h-2.172V6.758H331.8V.729H329.63V0h5.227Z" transform="translate(2314.493 1095.692)" fill="#fff"/>
    <path id="Path_40" data-name="Path 40" d="M338.644,0l2.209,5.514L343.063,0h1.156V6.758h-.891V4.126l.084-2.841-2.219,5.472h-.683L338.3,1.3l.088,2.826V6.758h-.891V0Z" transform="translate(2312.859 1095.692)" fill="#fff"/>
  </g>
</svg>
