<svg id="Group_10" data-name="Group 10" xmlns="http://www.w3.org/2000/svg" xmlns:xlink="http://www.w3.org/1999/xlink" width="380.698" height="400" viewBox="0 0 380.698 400">
  <defs>
    <clipPath id="clip-path">
      <rect id="Rectangle_12" data-name="Rectangle 12" width="380.698" height="400" fill="none"/>
    </clipPath>
  </defs>
  <g id="Group_9" data-name="Group 9" clip-path="url(#clip-path)">
    <path id="Path_45" data-name="Path 45" d="M184.13,137.552q-20.8,5.732-41.3,12.461a7,7,0,0,0-4.775,5.677c-8.065,60.516,10.569,104.669,32.8,133.755a156.114,156.114,0,0,0,33.293,32.507,88.5,88.5,0,0,0,13,7.759,32.38,32.38,0,0,0,4.265,1.717,7.945,7.945,0,0,0,1.471.364,8.908,8.908,0,0,0,1.456-.364,31.655,31.655,0,0,0,4.28-1.717,90.6,90.6,0,0,0,13-7.759,156.131,156.131,0,0,0,33.293-32.507c22.23-29.071,40.863-73.239,32.8-133.755a6.988,6.988,0,0,0-4.775-5.677c-9.477-3.1-25.475-8.153-41.3-12.447-16.159-4.382-31.023-7.628-38.752-7.628s-22.594,3.246-38.753,7.628Zm-3.872-14.994c15.8-4.294,32.58-8.152,42.625-8.152s26.829,3.858,42.624,8.152c16.159,4.367,32.449,9.535,42.028,12.665a22.419,22.419,0,0,1,15.2,18.372c8.676,65.174-11.457,113.476-35.884,145.43a171.413,171.413,0,0,1-36.642,35.709,104.2,104.2,0,0,1-15.257,9.1c-4.076,1.922-8.458,3.493-12.068,3.493s-7.977-1.572-12.068-3.493a104.094,104.094,0,0,1-15.257-9.1,171.43,171.43,0,0,1-36.642-35.709c-24.427-31.954-44.56-80.256-35.884-145.43a22.419,22.419,0,0,1,15.2-18.372q20.857-6.838,42.028-12.665" transform="translate(-33.058 -31.262)" fill="#fff"/>
    <path id="Path_46" data-name="Path 46" d="M223.432,256.692a6.928,6.928,0,1,0,6.929-6.928,6.936,6.936,0,0,0-6.929,6.928" transform="translate(-61.054 -68.25)" fill="#fff"/>
    <path id="Path_47" data-name="Path 47" d="M293.755,256.692a6.928,6.928,0,1,0-6.929,6.928,6.937,6.937,0,0,0,6.929-6.928" transform="translate(-76.484 -68.25)" fill="#fff"/>
    <path id="Path_48" data-name="Path 48" d="M192.265,247.581a31.2,31.2,0,0,0,31.16,31.16H239.6v-9.3H223.425a21.866,21.866,0,1,1,0-43.731H239.6v-9.294H223.425a31.2,31.2,0,0,0-31.16,31.16" transform="translate(-52.538 -59.138)" fill="#f6921e"/>
    <path id="Path_49" data-name="Path 49" d="M281.173,216.421H265v9.294h16.177a21.866,21.866,0,0,1,0,43.731H265v9.3h16.177a31.16,31.16,0,0,0,0-62.32" transform="translate(-72.412 -59.138)" fill="#f6921e"/>
    <line id="Line_3" data-name="Line 3" y1="51.042" transform="translate(190.349 2.805)" fill="#f6921e"/>
    <path id="Path_50" data-name="Path 50" d="M260.866,56.653a2.805,2.805,0,0,1-2.806-2.805V2.805a2.805,2.805,0,0,1,5.61,0V53.847a2.8,2.8,0,0,1-2.8,2.805" transform="translate(-70.516)" fill="#f6921e"/>
    <line id="Line_4" data-name="Line 4" x1="30.002" y1="41.294" transform="translate(74.441 40.466)" fill="#f6921e"/>
    <path id="Path_51" data-name="Path 51" d="M133.027,98.19a2.8,2.8,0,0,1-3.918-.621l-30-41.294a2.8,2.8,0,0,1,4.539-3.3l30,41.294a2.8,2.8,0,0,1-.621,3.918" transform="translate(-26.935 -14.161)" fill="#f6921e"/>
    <line id="Line_5" data-name="Line 5" x1="48.544" y1="15.773" transform="translate(2.806 139.063)" fill="#f6921e"/>
    <path id="Path_52" data-name="Path 52" d="M54.018,206.936a2.805,2.805,0,0,1-3.535,1.8L1.94,192.965a2.805,2.805,0,1,1,1.733-5.336L52.217,203.4a2.806,2.806,0,0,1,1.8,3.535" transform="translate(0 -51.233)" fill="#f6921e"/>
    <line id="Line_6" data-name="Line 6" x1="48.544" y2="15.773" transform="translate(2.806 245.164)" fill="#f6921e"/>
    <path id="Path_53" data-name="Path 53" d="M54.018,335.424a2.806,2.806,0,0,1-1.8,3.535L3.673,354.731A2.805,2.805,0,1,1,1.94,349.4l48.544-15.773a2.805,2.805,0,0,1,3.535,1.8" transform="translate(0 -91.127)" fill="#f6921e"/>
    <line id="Line_7" data-name="Line 7" x1="30.002" y2="41.294" transform="translate(74.441 318.24)" fill="#f6921e"/>
    <path id="Path_54" data-name="Path 54" d="M133.028,434.574a2.8,2.8,0,0,1,.621,3.918l-30,41.294a2.8,2.8,0,0,1-4.539-3.3l30-41.294a2.8,2.8,0,0,1,3.918-.621" transform="translate(-26.935 -118.604)" fill="#f6921e"/>
    <line id="Line_8" data-name="Line 8" y2="51.042" transform="translate(190.349 346.152)" fill="#f6921e"/>
    <path id="Path_55" data-name="Path 55" d="M260.866,472.446a2.805,2.805,0,0,1,2.805,2.805v51.042a2.805,2.805,0,1,1-5.61,0V475.251a2.805,2.805,0,0,1,2.805-2.805" transform="translate(-70.517 -129.099)" fill="#f6921e"/>
    <line id="Line_9" data-name="Line 9" x2="30.002" y2="41.294" transform="translate(276.255 318.24)" fill="#f6921e"/>
    <path id="Path_56" data-name="Path 56" d="M377.424,434.573a2.8,2.8,0,0,1,3.918.621l30,41.294a2.8,2.8,0,0,1-4.539,3.3l-30-41.294a2.8,2.8,0,0,1,.621-3.918" transform="translate(-102.817 -118.603)" fill="#f6921e"/>
    <line id="Line_10" data-name="Line 10" x2="48.544" y2="15.773" transform="translate(329.348 245.164)" fill="#f6921e"/>
    <path id="Path_57" data-name="Path 57" d="M449.461,335.423a2.805,2.805,0,0,1,3.535-1.8l48.544,15.773a2.805,2.805,0,1,1-1.733,5.336l-48.544-15.773a2.806,2.806,0,0,1-1.8-3.535" transform="translate(-122.78 -91.127)" fill="#f6921e"/>
    <line id="Line_11" data-name="Line 11" y1="15.773" x2="48.544" transform="translate(329.348 139.063)" fill="#f6921e"/>
    <path id="Path_58" data-name="Path 58" d="M449.461,206.936a2.806,2.806,0,0,1,1.8-3.535l48.544-15.773a2.805,2.805,0,1,1,1.733,5.336L453,208.737a2.805,2.805,0,0,1-3.535-1.8" transform="translate(-122.78 -51.233)" fill="#f6921e"/>
    <line id="Line_12" data-name="Line 12" y1="41.294" x2="30.002" transform="translate(276.255 40.466)" fill="#f6921e"/>
    <path id="Path_59" data-name="Path 59" d="M377.424,98.19a2.8,2.8,0,0,1-.621-3.918l30-41.294a2.8,2.8,0,1,1,4.539,3.3l-30,41.294a2.8,2.8,0,0,1-3.918.621" transform="translate(-102.817 -14.161)" fill="#f6921e"/>
  </g>
</svg>
