<svg xmlns="http://www.w3.org/2000/svg" xmlns:xlink="http://www.w3.org/1999/xlink" width="78" height="78" viewBox="0 0 78 78">
  <defs>
    <clipPath id="clip-path">
      <rect id="Rectangle_1" data-name="Rectangle 1" width="52.735" height="47.422" fill="none"/>
    </clipPath>
  </defs>
  <g id="logo-circle" transform="translate(-1066 -611)">
    <g id="Ellipse_17" data-name="Ellipse 17" transform="translate(1066 611)" fill="none" stroke="#4d3364" stroke-width="1">
      <circle cx="39" cy="39" r="39" stroke="none"/>
      <circle cx="39" cy="39" r="38.5" fill="none"/>
    </g>
    <g id="Group_2" data-name="Group 2" transform="translate(1076 623)">
      <g id="Group_1" data-name="Group 1" clip-path="url(#clip-path)">
        <path id="Path_1" data-name="Path 1" d="M39.381,21.834c-1.618,0-3.237-.032-4.854.024a13.785,13.785,0,0,0-8.038,2.933,14.044,14.044,0,0,0-3.414,3.787C19.887,33.7,16.713,38.83,13.5,43.935a7.063,7.063,0,0,1-6.89,3.454A7.279,7.279,0,0,1,1.154,36.21L13.535,16.337c2.292-3.679,4.558-7.374,6.882-11.031A11.038,11.038,0,0,1,28.276.156,10.736,10.736,0,0,1,35.6,1.488,7.442,7.442,0,0,1,39.339,7.2a5.919,5.919,0,0,1,.05.8q0,6.911,0,13.822Z" fill="#f6921e"/>
        <path id="Path_2" data-name="Path 2" d="M84.186,46.62l.006-.019c1.488.005,2.982-.094,4.464.038a9.416,9.416,0,0,1,7.7,4.969,9.093,9.093,0,0,1,1.188,4.614q0,4.676,0,9.351A6.678,6.678,0,0,1,84.333,66.91,6.178,6.178,0,0,1,84.19,65.6V46.619" transform="translate(-44.806 -24.786)" fill="#fff"/>
        <path id="Path_3" data-name="Path 3" d="M102.119,18.891a4.653,4.653,0,1,1-1.361-3.313,4.665,4.665,0,0,1,1.361,3.313" transform="translate(-49.385 -7.564)" fill="#fff"/>
        <path id="Path_4" data-name="Path 4" d="M60.916,68.587A4.673,4.673,0,1,1,65.6,63.969a4.673,4.673,0,0,1-4.684,4.618" transform="translate(-29.939 -31.531)" fill="#fff"/>
      </g>
    </g>
  </g>
</svg>
