<?xml version="1.0" encoding="utf-8"?>
<!-- Generator: Adobe Illustrator 27.1.0, SVG Export Plug-In . SVG Version: 6.00 Build 0)  -->
<svg version="1.1" id="Layer_1" xmlns="http://www.w3.org/2000/svg" xmlns:xlink="http://www.w3.org/1999/xlink" x="0px" y="0px"
	 viewBox="0 0 178.1 39" style="enable-background:new 0 0 178.1 39;" xml:space="preserve">
<style type="text/css">
	.st0{fill:#F6921E;}
	.st1{fill:#FFFFFF;}
</style>
<g id="Group_2" transform="translate(0 0)">
	<g>
		<g id="Group_1" transform="translate(0 0)">
			<path id="Path_1" class="st0" d="M31.6,18.4c-1.3,0-2.6,0-3.9,0c-2.3,0.1-4.6,0.9-6.4,2.4c-1.1,0.8-2,1.9-2.7,3
				c-2.6,4.1-5.1,8.2-7.7,12.3c-1.1,1.9-3.3,3-5.5,2.8c-3.2-0.3-5.6-3.1-5.3-6.4c0.1-0.9,0.4-1.8,0.9-2.6c3.3-5.3,6.6-10.6,9.9-16
				c1.8-3,3.7-5.9,5.5-8.9c1.4-2.2,3.7-3.8,6.3-4.1c2-0.4,4.1,0,5.9,1.1c1.7,1,2.8,2.7,3,4.6c0,0.2,0,0.4,0,0.6
				C31.6,11,31.6,14.7,31.6,18.4L31.6,18.4z"/>
			<path id="Path_2" class="st1" d="M31.6,18.4L31.6,18.4c1.2,0,2.4-0.1,3.6,0c2.6,0.2,4.9,1.7,6.2,4c0.6,1.1,1,2.4,1,3.7
				c0,2.5,0,5,0,7.5c0,3-2.4,5.3-5.4,5.3c-2.5,0-4.7-1.8-5.2-4.3c-0.1-0.3-0.1-0.7-0.1-1.1C31.6,28.6,31.6,23.5,31.6,18.4"/>
			<path id="Path_3" class="st1" d="M42.3,10c0,2.1-1.7,3.7-3.8,3.7s-3.7-1.7-3.7-3.8s1.7-3.7,3.7-3.7C40.6,6.2,42.3,7.9,42.3,10
				L42.3,10"/>
			<path id="Path_4" class="st1" d="M24.9,30.7c-2.1,0-3.7-1.7-3.7-3.8s1.7-3.7,3.8-3.7s3.7,1.7,3.7,3.8l0,0
				C28.6,29,26.9,30.7,24.9,30.7"/>
			<path id="Path_5" class="st1" d="M88.3,3.3c-1.1,0-1.9-0.6-1.9-1.6s0.7-1.6,1.9-1.6c1.2,0,2,0.7,1.9,1.8
				C90.1,2.7,89.4,3.3,88.3,3.3"/>
			<path id="Path_6" class="st1" d="M139.1,12.4c0.5-1.3,0.9-2.6,1.4-3.8c0.4-1.1,0.7-2.1,1.1-3.2c0.3-0.9,1.2-1.4,2.1-1.1
				c0.3,0.1,0.6,0.2,0.8,0.5c0.5,0.6,0.5,1.4,0.1,2c-0.9,2.1-1.7,4.1-2.6,6.2c-0.6,1.4-1.2,2.9-1.8,4.3c-1.1,2.5-2.9,3-5.5,2.3
				c-0.8-0.2-1.3-0.9-1.1-1.7c0-0.1,0-0.1,0.1-0.2c0.3-0.7,0.9-1,1.9-0.8c0.3,0.1,0.7,0.1,1.1,0.1c0.5-0.1,0.9-0.6,0.8-1.1
				c0-0.1-0.1-0.2-0.1-0.3c-1.2-2.9-2.5-5.8-3.7-8.6c-0.1-0.2-0.1-0.3-0.2-0.5c-0.3-0.8,0.1-1.8,0.9-2.1l0,0c0.8-0.4,1.8,0,2.1,0.8
				c0,0.1,0.1,0.1,0.1,0.2c0.8,2.1,1.6,4.2,2.4,6.4C138.9,11.9,139,12.1,139.1,12.4"/>
			<path id="Path_7" class="st1" d="M173.5,16.6c-1.5,0-3-0.4-4.3-1.2c-0.7-0.3-1-1.2-0.7-1.9c0,0,0-0.1,0.1-0.1
				c0.4-0.6,1.3-0.8,1.9-0.4c0,0,0,0,0.1,0c1,0.7,2.2,1,3.4,0.9c0.5-0.1,0.9-0.2,1-0.8s-0.4-0.8-0.8-0.9c-0.7-0.2-1.3-0.4-2-0.6
				c-0.4-0.1-0.8-0.3-1.1-0.4c-1.3-0.5-2.1-1.7-2.1-3c-0.1-1.5,0.7-2.8,2.1-3.4c2-0.8,4.3-0.6,6.2,0.6c0.6,0.4,0.8,1.2,0.4,1.8
				c-0.4,0.6-1.1,0.8-1.8,0.5s-1.4-0.6-2.2-0.7c-0.2,0-0.3-0.1-0.5,0c-0.5,0.1-1,0.1-1.1,0.7s0.4,0.8,0.8,0.9c0.9,0.4,1.8,0.6,2.7,1
				c2.4,1,3,2.7,2.1,4.9c-0.6,1.5-2,1.9-3.5,2.1C173.9,16.6,173.7,16.6,173.5,16.6"/>
			<path id="Path_8" class="st1" d="M70,4.2c1.4-0.1,2.9,0.3,4.1,1.1c0.8,0.4,1,1.4,0.6,2.1l-0.1,0.1c-0.5,0.7-1.5,0.8-2.2,0.3
				c0,0-0.1,0-0.1-0.1c-1.6-1-3.3-0.8-4.3,0.6c-1.1,1.5-0.8,3.6,0.6,4.9c1.1,0.8,2.6,0.7,3.7-0.1c0.3-0.2,0.6-0.4,0.9-0.5
				c0.8-0.2,1.6,0.3,1.7,1.1c0.1,0.5-0.1,1-0.4,1.3c-0.9,0.8-1.9,1.3-3.1,1.5c-3.3,0.7-6.6-1.5-7.2-4.8l0,0
				c-0.8-3.3,1.3-6.5,4.5-7.3C69.1,4.3,69.6,4.2,70,4.2"/>
			<path id="Path_9" class="st1" d="M98.1,12.2c0.8-2.2,1.7-4.5,2.5-6.7c0.2-0.7,0.8-1.2,1.5-1.2c0.7-0.1,1.3,0.3,1.6,0.9
				c0.2,0.5,0.2,1-0.1,1.5c-1.2,2.8-2.4,5.6-3.6,8.4c-0.4,1.1-1.6,1.7-2.7,1.3c-0.6-0.2-1.1-0.7-1.4-1.4c-1.2-2.8-2.4-5.5-3.6-8.3
				C92,6.1,92.2,5.1,93,4.6c0.1,0,0.2-0.1,0.2-0.1c0.9-0.4,1.9,0,2.2,0.9c0,0.1,0.1,0.2,0.1,0.3c0.8,2.1,1.6,4.2,2.3,6.3
				C97.9,12,97.9,12.1,98.1,12.2"/>
			<path id="Path_10" class="st1" d="M77.7,10.7c0-0.9,0-1.9,0-2.8c0-0.4,0-0.6-0.5-0.6c-0.6-0.1-1.1-0.7-1.1-1.3
				c-0.1-0.7,0.4-1.3,1.1-1.4c0.4-0.1,0.4-0.2,0.4-0.5s0-0.7,0-1c0-0.9,0.7-1.7,1.7-1.7C80.3,1.3,81,2,81,3c0,0.5-0.2,1.1,0.1,1.4
				c0.3,0.2,0.9,0.1,1.4,0.1c0.8,0,1.4,0.7,1.4,1.5c0,0.7-0.5,1.3-1.2,1.4c-0.2,0-0.4,0-0.6,0c-1.1,0-1.1,0-1.1,1.1
				c0,1.3,0,2.6,0,3.9c0,1,0.3,1.3,1.3,1.3c0.8-0.1,1.5,0.5,1.5,1.3c0.1,0.7-0.4,1.4-1.1,1.5c-1,0.3-2.1,0.3-3.2,0
				c-1.2-0.4-2-1.6-1.9-2.8c0-0.5,0-0.9,0-1.4S77.7,11.2,77.7,10.7"/>
			<path id="Path_11" class="st1" d="M147.5,10.7c0-0.9,0-1.9,0-2.8c0-0.4,0-0.6-0.5-0.6c-0.7-0.1-1.1-0.7-1.1-1.4s0.5-1.3,1.1-1.4
				c0.4-0.1,0.4-0.2,0.4-0.5c0-0.4,0-0.7,0-1.1c0-0.9,0.8-1.7,1.7-1.7s1.7,0.8,1.7,1.7l0,0c0,0.5-0.2,1.1,0.1,1.4s0.9,0.1,1.4,0.1
				c0.8,0,1.4,0.7,1.4,1.4s-0.5,1.3-1.2,1.4c-0.2,0-0.4,0-0.5,0c-1.2,0-1.2,0-1.2,1.2c0,1.3,0,2.5,0,3.8c0,1,0.3,1.3,1.3,1.3
				c0.8-0.1,1.5,0.5,1.5,1.2c0.1,0.7-0.4,1.4-1.1,1.5c-1,0.3-2.1,0.3-3.2,0c-1.2-0.4-2.1-1.6-1.9-2.9
				C147.5,12.6,147.5,11.7,147.5,10.7"/>
			<path id="Path_12" class="st1" d="M86.6,10.4c0-1.4,0-2.8,0-4.2c-0.1-0.9,0.7-1.7,1.6-1.8C89.1,4.3,89.9,5.1,90,6
				c0,0.1,0,0.1,0,0.2c0,2.9,0,5.8,0,8.6c0,0.9-0.7,1.7-1.6,1.7s-1.7-0.7-1.7-1.6v-0.1C86.5,13.3,86.6,11.8,86.6,10.4"/>
			<path id="Path_13" class="st1" d="M131.4,8.2c-0.3-1.1-0.9-2-1.7-2.7c-2.1-1.9-4.8-1.7-7.2,0.5c0-1.5,0-3,0-4.4
				c-0.1-0.9-0.9-1.6-1.8-1.6c-0.8,0.1-1.5,0.7-1.6,1.6c0,4.4,0,8.9,0,13.3c0,0.9,0.7,1.6,1.6,1.6c0.4,0,0.9-0.1,1.2-0.4
				c0.3-0.3,0.5-0.7,0.6-1.1c1.9,2.1,5.2,2.2,7.3,0.3c0.7-0.6,1.2-1.5,1.5-2.4C131.8,11.4,131.9,9.7,131.4,8.2 M127.2,13.1
				c-1.1,1-2.8,0.9-3.8-0.2c-0.1-0.1-0.2-0.3-0.3-0.4c-0.8-1.2-0.8-2.8,0-4c0.8-1.3,2.5-1.7,3.8-1c0.4,0.2,0.7,0.6,1,1
				c0.4,0.6,0.5,1.3,0.5,2C128.4,11.4,128,12.4,127.2,13.1"/>
			<path id="Path_14" class="st1" d="M61.7,9c0.1-2-1.1-3.8-3-4.3c-2-0.5-4.1-0.4-6.1,0.3c-0.4,0.1-0.8,0.5-0.9,0.9
				c-0.2,0.7,0.2,1.5,0.9,1.7c0.3,0.1,0.6,0.1,0.9,0c1-0.3,2.1-0.4,3.1-0.3c0.9,0.1,1.6,0.8,1.7,1.6c0.1,0.4,0.1,0.6-0.5,0.4
				c-1.3-0.4-2.7-0.5-4.1-0.2c-1.9,0.2-3.4,1.9-3.2,3.9v0.1c0.1,1.8,1.5,3.3,3.3,3.4c1.6,0.3,3.2-0.2,4.3-1.3
				c0.3,0.9,1.2,1.4,2.1,1.2c0.8-0.2,1.3-0.8,1.3-1.9C61.7,12.7,61.8,10.8,61.7,9 M58.5,12.1c0,0.9-0.5,1.6-1.3,1.9
				c-0.9,0.5-1.9,0.4-2.7-0.2c-0.6-0.5-0.7-1.5-0.1-2.1c0.1-0.2,0.3-0.3,0.5-0.4c1.1-0.4,2.3-0.4,3.3,0.1
				C58.6,11.6,58.5,11.6,58.5,12.1"/>
			<path id="Path_15" class="st1" d="M159,11.5c1,0,2.1,0,3.1,0l0,0h3c0.8,0.1,1.6-0.5,1.7-1.3c0-0.1,0-0.2,0-0.3
				c0-3.1-2.5-5.7-5.6-5.7c-0.4,0-0.7,0-1.1,0.1c-2.9,0.5-5.1,3.1-4.9,6.1c-0.2,2.4,1.1,4.6,3.3,5.6c2.2,1.1,4.9,0.9,6.9-0.6
				c0.6-0.4,0.8-1.2,0.4-1.9c-0.4-0.6-1.2-0.8-1.9-0.4c-0.1,0-0.1,0.1-0.1,0.1c-0.3,0.2-0.7,0.4-1.1,0.6c-1.5,0.6-3.3-0.1-3.9-1.6
				v-0.1C158.5,11.6,158.6,11.5,159,11.5 M158.6,9c0.2-1.2,1.4-2.1,2.6-2c1.3,0.1,2.3,1.2,2.2,2.5c-1.5,0-3,0-4.6,0
				C158.4,9.5,158.5,9.2,158.6,9"/>
			<path id="Path_16" class="st1" d="M109.1,11.5c1,0.1,2,0,3,0s2,0,3,0c0.8,0.1,1.6-0.5,1.7-1.3c0-0.1,0-0.2,0-0.3
				c0-3.1-2.5-5.7-5.6-5.7c-0.4,0-0.7,0-1.1,0.1c-2.9,0.5-5,3.1-4.9,6.1c-0.2,2.4,1.1,4.6,3.3,5.6c2.2,1.1,4.9,0.9,6.9-0.6
				c0.6-0.4,0.8-1.2,0.4-1.9s-1.2-0.8-1.9-0.4c-0.1,0-0.1,0.1-0.2,0.1c-0.3,0.2-0.7,0.4-1.1,0.6c-1.5,0.6-3.2,0-3.9-1.5
				C108.5,11.7,108.5,11.5,109.1,11.5 M108.5,9.1c0.2-1.2,1.3-2.1,2.5-2.2c1.2,0,2.2,0.9,2.4,2.1c0.1,0.4,0,0.4-0.3,0.4
				c-0.7,0-1.4,0-2.2,0c-0.7,0-1.3,0-2,0C108.6,9.5,108.5,9.4,108.5,9.1"/>
			<path id="Path_17" class="st1" d="M73.9,28.9c0.8-1.4,2.4-2.2,4-2.2c2.3-0.2,4.3,1.6,4.5,3.9c0,0.1,0,0.3,0,0.4
				c0,2.2,0,4.4,0,6.6c0,0.7-0.3,1-0.9,1s-0.9-0.3-0.9-1c0-1.9,0-3.8,0-5.7c0-0.5-0.1-1.1-0.2-1.6c-0.4-1.3-1.7-2.2-3.1-2.1
				c-1.5,0-2.8,1-3.3,2.4c-0.1,0.5-0.2,1-0.2,1.5c0,1.8,0,3.5,0,5.3c0,0.8-0.3,1.1-0.9,1.1S72,38.2,72,37.4c0-3.2,0-6.4,0-9.7
				c0-0.8,0.3-1.1,0.9-1.1s0.8,0.4,0.9,1.1C73.9,28.2,73.9,28.5,73.9,28.9"/>
			<path id="Path_18" class="st1" d="M60.2,28.9c0.8-1.4,2.4-2.2,4-2.2c2.3-0.2,4.3,1.6,4.5,3.9c0,0.2,0,0.3,0,0.5
				c0,2.2,0,4.5,0,6.7c0,0.6-0.3,1-0.9,1s-0.9-0.3-0.9-1c0-1.9,0-3.8,0-5.7c0-0.5-0.1-1.1-0.2-1.6c-0.4-1.3-1.7-2.2-3.1-2.1
				c-1.5,0-2.8,1-3.3,2.4c-0.1,0.5-0.2,1-0.2,1.5c0,1.8,0,3.7,0,5.5c0,0.4-0.2,0.8-0.6,0.9c-0.4,0.1-0.8,0-1-0.3
				c-0.1-0.2-0.2-0.4-0.1-0.7c0-3.3,0-6.5,0-9.8c0-0.7,0.3-1,0.9-1s0.8,0.4,0.9,1.1C60.2,28.2,60.2,28.5,60.2,28.9"/>
			<path id="Path_19" class="st1" d="M156.4,28.9c0.8-1.4,2.4-2.2,4-2.2c2.3-0.2,4.3,1.6,4.5,3.9c0,0.1,0,0.3,0,0.4
				c0,2.2,0,4.4,0,6.6c0,0.7-0.3,1-0.9,1s-0.9-0.3-0.9-1c0-1.9,0-3.8,0-5.7c0-0.5-0.1-1.1-0.2-1.6c-0.4-1.3-1.7-2.2-3.1-2.1
				c-1.5,0-2.8,1-3.3,2.4c-0.1,0.5-0.2,1-0.2,1.5c0,1.7,0,3.5,0,5.2c0,0.9-0.2,1.3-0.9,1.3s-0.9-0.3-0.9-1.2c0-3.1,0-6.3,0-9.4
				c0-0.9,0.3-1.2,0.9-1.2c0.6,0,0.8,0.4,0.9,1.2C156.4,28.3,156.4,28.5,156.4,28.9"/>
			<path id="Path_20" class="st1" d="M172.6,38.9c-1.6,0-3.2-0.4-4.6-1.3c-0.5-0.3-0.7-0.8-0.4-1.2c0.2-0.4,0.7-0.5,1.1-0.2l0.1,0.1
				c1,0.7,2.1,1.1,3.3,1.2c0.3,0,0.6,0,0.9-0.1c0.8-0.1,1.5-0.8,1.6-1.6c0.1-0.7-0.3-1.3-1.3-1.7c-0.7-0.3-1.5-0.5-2.2-0.7
				c-0.5-0.2-1-0.4-1.5-0.6c-1-0.4-1.7-1.4-1.7-2.4c-0.1-1.2,0.5-2.4,1.6-3c1.2-0.6,2.7-0.8,4-0.4c0.6,0.1,1.2,0.4,1.8,0.7
				c0.6,0.3,0.8,0.7,0.6,1.2s-0.7,0.6-1.3,0.2c-0.9-0.5-2-0.8-3.1-0.8c-0.5,0-0.9,0.2-1.3,0.5c-0.6,0.4-0.8,1.3-0.4,1.9
				c0.1,0.2,0.3,0.3,0.5,0.5c0.7,0.4,1.4,0.7,2.2,0.9c0.7,0.2,1.4,0.5,2.1,0.8c1.1,0.5,1.7,1.6,1.7,2.7c0,1.2-0.7,2.3-1.7,2.9
				C174,38.7,173.3,38.9,172.6,38.9"/>
			<path id="Path_21" class="st1" d="M104.4,36.4c0.3-0.1,0.3-0.4,0.4-0.6c1.1-2.7,2.3-5.4,3.4-8.1c0.2-0.4,0.3-0.7,0.8-0.8
				c0.8-0.1,1.2,0.6,0.9,1.4c-0.6,1.4-1.2,2.8-1.9,4.2c-0.8,1.8-1.6,3.6-2.4,5.3c-0.2,0.5-0.5,0.9-1.1,0.9s-0.9-0.4-1.1-0.9
				c-1.4-3.1-2.8-6.3-4.2-9.4c-0.2-0.3-0.2-0.7-0.1-1.1c0.2-0.3,0.5-0.5,0.8-0.5c0.4,0,0.7,0.3,0.8,0.7c0.7,1.7,1.4,3.4,2.1,5.1
				C103.4,33.9,103.9,35.1,104.4,36.4"/>
			<path id="Path_22" class="st1" d="M125.9,32.4c0-1.1,0-2.2,0-3.3c0-0.4-0.1-0.6-0.5-0.5c-0.2,0-0.5,0-0.7,0
				c-0.3-0.1-0.5-0.5-0.5-0.8c0-0.4,0.3-0.7,0.7-0.7c1-0.1,1-0.1,1-1.1c0-0.5,0-1,0-1.6s0.3-0.9,0.9-0.9c0.5,0,0.8,0.3,0.9,0.8
				c0,0.1,0,0.1,0,0.2c0,0.7,0,1.4,0,2.1c0,0.5,0.1,0.6,0.6,0.6c0.7,0,1.5,0,2.2,0c0.6,0,1,0.2,1,0.8c0,0.6-0.4,0.8-1,0.8
				c-0.8,0-1.5,0-2.3,0c-0.3,0-0.5,0-0.5,0.4c0,2.2,0,4.3,0,6.5c0,1.5,1,2.1,2.7,1.8c0.3-0.1,0.7,0,0.9,0.3s0.1,0.7-0.2,0.9l0,0
				c-1.6,1-3.8,0.5-4.8-1.2c-0.1-0.2-0.2-0.4-0.3-0.7c-0.1-0.8-0.1-1.6-0.1-2.4C125.9,33.6,125.9,33,125.9,32.4"/>
			<path id="Path_23" class="st1" d="M136.3,32.9c0,1.6,0,3.2,0,4.8c0,0.8-0.3,1.1-0.9,1.1c-0.6,0-0.9-0.4-0.9-1.1
				c0-3.2,0-6.5,0-9.7c0-0.7,0.3-1.1,0.9-1.1c0.6,0,0.9,0.3,0.9,1.1C136.3,29.6,136.3,31.3,136.3,32.9"/>
			<path id="Path_24" class="st1" d="M54.5,32.9c0,1.6,0,3.2,0,4.8c0,0.8-0.3,1.1-0.9,1.1c-0.6,0-0.9-0.4-0.9-1.1c0-3.2,0-6.5,0-9.7
				c0-0.7,0.3-1.1,0.9-1.1c0.6,0,0.9,0.3,0.9,1.1C54.5,29.6,54.5,31.3,54.5,32.9"/>
			<path id="Path_25" class="st1" d="M54.6,23.6c0.1,0.5-0.3,1-0.8,1c-0.1,0-0.2,0-0.2,0c-0.7,0-1-0.4-1-1.1c-0.1-0.5,0.3-1,0.8-1
				c0.1,0,0.2,0,0.3,0C54.3,22.5,54.6,22.9,54.6,23.6"/>
			<path id="Path_26" class="st1" d="M134.4,23.6c0-0.7,0.3-1.1,1-1.1c0.5-0.1,1,0.3,1,0.8c0,0.1,0,0.2,0,0.3c0,0.6-0.4,1-1,1.1
				C134.8,24.6,134.4,24.2,134.4,23.6L134.4,23.6"/>
			<path id="Path_27" class="st1" d="M121.7,30.8c0-1.9-1.4-3.5-3.3-3.8c-1.6-0.3-3.3-0.2-4.8,0.4c-0.8,0.3-1.2,0.7-1,1.2
				s0.6,0.6,1.5,0.2c1.3-0.5,2.7-0.6,4-0.2c1.4,0.4,2.2,1.9,1.8,3.3c-0.1,0-0.2,0-0.3-0.1c-1.8-0.5-3.7-0.5-5.5,0
				c-1.9,0.5-3,2.5-2.4,4.4c0.3,1.2,1.2,2.1,2.4,2.4c2.1,0.8,4.5,0.1,5.9-1.6c0,0.4,0,0.6,0,0.9c-0.1,0.4,0.2,0.8,0.6,0.9
				c0.1,0,0.1,0,0.2,0c0.4,0.1,0.8-0.2,0.8-0.6c0-0.1,0-0.1,0-0.2C121.7,35.5,121.7,33.2,121.7,30.8 M115.3,37.4
				c-1.1-0.1-1.9-1-2-2.2c-0.1-1,0.6-2,1.6-2.2c1.2-0.3,2.5-0.4,3.7-0.1c0.1,0,0.3,0.1,0.4,0.1c1,0.2,1,0.2,1,1.1
				C120,36.4,117.8,37.9,115.3,37.4"/>
			<path id="Path_28" class="st1" d="M91.3,26.7c-3.3,0-6,2.6-6,5.9c0,0.1,0,0.1,0,0.2c-0.1,3.2,2.4,6,5.6,6.1c0.1,0,0.2,0,0.3,0
				c3.4,0,6.1-2.7,6-6.1C97.3,29.5,94.6,26.8,91.3,26.7 M91.2,37.3c-2.5-0.2-4.3-2.4-4.1-4.9c0.2-2.2,2-4,4.2-4.1
				c2.5,0.1,4.4,2.2,4.3,4.6l0,0c0.1,2.3-1.8,4.3-4.1,4.4C91.3,37.3,91.3,37.3,91.2,37.3"/>
			<path id="Path_29" class="st1" d="M145.6,26.7c-3.3,0-6,2.6-6,5.9c0,0.1,0,0.1,0,0.2c-0.1,3.2,2.4,6,5.6,6.1c0.1,0,0.2,0,0.3,0
				c3.4,0,6-2.8,6-6.1C151.5,29.5,148.8,26.8,145.6,26.7 M145.4,37.3c-2.5-0.2-4.3-2.5-4.1-4.9c0.2-2.2,2-3.9,4.2-4.1
				c2.5,0.1,4.3,2.2,4.2,4.7l0,0c0.1,2.3-1.8,4.3-4.1,4.4C145.6,37.3,145.5,37.3,145.4,37.3"/>
		</g>
	</g>
</g>
</svg>
