<svg xmlns="http://www.w3.org/2000/svg" xmlns:xlink="http://www.w3.org/1999/xlink" width="178.08" height="39" viewBox="0 0 178.08 39">
  <defs>
    <clipPath id="clip-path">
      <rect id="Rectangle_1" data-name="Rectangle 1" width="178.08" height="39" transform="translate(0 0)" fill="#fff"/>
    </clipPath>
  </defs>
  <g id="Group_2" data-name="Group 2" transform="translate(0 0)">
    <g id="Group_1" data-name="Group 1" transform="translate(0 0)" clip-path="url(#clip-path)">
      <path id="Path_1" data-name="Path 1" d="M31.611,19.331c-1.3,0-2.6-.025-3.9.019A11.066,11.066,0,0,0,21.264,21.7a11.269,11.269,0,0,0-2.74,3.04c-2.56,4.111-5.108,8.229-7.688,12.327a5.669,5.669,0,0,1-5.53,2.772A5.842,5.842,0,0,1,.927,30.871Q5.9,22.894,10.865,14.918C12.7,11.965,14.523,9,16.39,6.064A8.86,8.86,0,0,1,22.7,1.93,8.618,8.618,0,0,1,28.578,3a5.974,5.974,0,0,1,3,4.583,4.743,4.743,0,0,1,.04.64q0,5.547,0,11.095Z" transform="translate(0 -0.888)" fill="#f6921e"/>
      <path id="Path_2" data-name="Path 2" d="M62.219,36.263l.005-.015c1.194,0,2.393-.075,3.583.031a7.558,7.558,0,0,1,6.178,3.989,7.3,7.3,0,0,1,.954,3.7q0,3.753,0,7.507a5.36,5.36,0,0,1-10.605,1.073,4.987,4.987,0,0,1-.114-1.053q0-7.617,0-15.235" transform="translate(-30.607 -17.82)" fill="#fff"/>
      <path id="Path_3" data-name="Path 3" d="M76.065,16.064a3.744,3.744,0,1,1-3.751-3.756,3.735,3.735,0,0,1,3.751,3.756" transform="translate(-33.735 -6.055)" fill="#fff"/>
      <path id="Path_4" data-name="Path 4" d="M45.317,53.09a3.751,3.751,0,1,1,3.758-3.707,3.76,3.76,0,0,1-3.758,3.707" transform="translate(-20.451 -22.428)" fill="#fff"/>
      <path id="Path_5" data-name="Path 5" d="M171.955,3.3c-1.126-.005-1.851-.62-1.862-1.579-.011-1,.716-1.631,1.878-1.634,1.219,0,1.967.687,1.9,1.751-.059.9-.807,1.467-1.913,1.462" transform="translate(-83.675 -0.043)" fill="#fff"/>
      <path id="Path_6" data-name="Path 6" d="M268.152,16.611c.488-1.348.929-2.561,1.366-3.775.38-1.053.726-2.119,1.14-3.159a1.655,1.655,0,0,1,2.812-.644,1.8,1.8,0,0,1,.15,2.024q-1.287,3.1-2.577,6.2c-.6,1.447-1.176,2.906-1.817,4.335-1.119,2.491-2.939,3.03-5.5,2.261a1.429,1.429,0,0,1-1.02-1.9c.259-.749.94-1.034,1.877-.8a1.989,1.989,0,0,0,1.059.079.933.933,0,0,0,.67-1.376q-1.853-4.321-3.708-8.641a4.871,4.871,0,0,1-.206-.5,1.629,1.629,0,0,1,.924-2.111,1.6,1.6,0,0,1,2.193.965c.817,2.108,1.589,4.234,2.379,6.353.067.179.135.358.258.683" transform="translate(-129.037 -4.169)" fill="#fff"/>
      <path id="Path_7" data-name="Path 7" d="M336.486,20.764a7.9,7.9,0,0,1-4.271-1.212,1.412,1.412,0,0,1-.643-2,1.394,1.394,0,0,1,2-.352,5.618,5.618,0,0,0,3.44.923c.472-.055.912-.21.979-.752.068-.558-.367-.783-.8-.94-.651-.236-1.318-.428-1.974-.65a10.078,10.078,0,0,1-1.129-.424,3.185,3.185,0,0,1-2.079-3.015A3.369,3.369,0,0,1,334.1,8.959a6.772,6.772,0,0,1,6.189.591,1.338,1.338,0,0,1,.389,1.8,1.367,1.367,0,0,1-1.758.534,8.461,8.461,0,0,0-2.221-.743,1.734,1.734,0,0,0-.466-.048c-.488.073-1.046.118-1.145.736-.091.565.4.776.8.94.89.362,1.814.638,2.7,1,2.405.98,3.017,2.738,2.093,4.921-.63,1.491-2.033,1.92-3.524,2.074a6.609,6.609,0,0,1-.673,0" transform="translate(-163.015 -4.159)" fill="#fff"/>
      <path id="Path_8" data-name="Path 8" d="M131.989,8.27a6.3,6.3,0,0,1,4.053,1.093,1.575,1.575,0,0,1,.524,2.278,1.6,1.6,0,0,1-2.324.251c-1.563-1.078-3.241-.893-4.224.466a3.635,3.635,0,0,0,.62,4.853,3.15,3.15,0,0,0,3.652-.078,2.584,2.584,0,0,1,.878-.481,1.454,1.454,0,0,1,1.295,2.477,5.709,5.709,0,0,1-3.1,1.488,6.153,6.153,0,0,1-7.232-4.877,6.083,6.083,0,0,1,5.86-7.471" transform="translate(-61.985 -4.068)" fill="#fff"/>
      <path id="Path_9" data-name="Path 9" d="M187.393,16.385c.835-2.245,1.657-4.47,2.49-6.692a1.6,1.6,0,0,1,1.54-1.187,1.549,1.549,0,0,1,1.56.948,1.778,1.778,0,0,1-.053,1.5q-1.8,4.2-3.624,8.386a2.106,2.106,0,0,1-4.009-.022q-1.791-4.129-3.563-8.266a1.673,1.673,0,0,1,.782-2.428,1.693,1.693,0,0,1,2.326,1.165c.782,2.1,1.551,4.2,2.324,6.3.039.105.052.22.226.292" transform="translate(-89.294 -4.171)" fill="#fff"/>
      <path id="Path_10" data-name="Path 10" d="M151.34,12.006c0-.943-.014-1.886.007-2.829.008-.363-.042-.551-.47-.626a1.306,1.306,0,0,1-1.088-1.342,1.356,1.356,0,0,1,1.147-1.442c.367-.06.426-.189.409-.5-.019-.336-.01-.674,0-1.01a1.686,1.686,0,0,1,3.372-.037c.019.487-.216,1.149.1,1.412.3.247.936.079,1.424.1a1.432,1.432,0,0,1,.171,2.851,3.962,3.962,0,0,1-.6.047c-1.1.012-1.1.01-1.1,1.074,0,1.3-.011,2.605,0,3.908.011.985.315,1.266,1.307,1.268a1.4,1.4,0,0,1,.447,2.759,5.463,5.463,0,0,1-3.184.044,2.8,2.8,0,0,1-1.939-2.849c-.018-.471,0-.943,0-1.414s0-.943,0-1.415" transform="translate(-73.686 -1.261)" fill="#fff"/>
      <path id="Path_11" data-name="Path 11" d="M288.814,12.01c0-.943-.014-1.886.007-2.828.008-.363-.044-.551-.47-.631a1.317,1.317,0,0,1-1.088-1.41,1.344,1.344,0,0,1,1.146-1.375c.369-.058.426-.188.409-.5-.019-.358-.014-.718,0-1.078a1.686,1.686,0,0,1,3.372.028c.02.487-.213,1.12.1,1.421s.938.067,1.426.091a1.433,1.433,0,0,1,.171,2.854,3.546,3.546,0,0,1-.534.047c-1.164.017-1.164.015-1.163,1.209,0,1.256-.01,2.514,0,3.772.011.985.313,1.267,1.306,1.269a1.4,1.4,0,0,1,.45,2.759,5.457,5.457,0,0,1-3.184.046,2.818,2.818,0,0,1-1.942-2.915c-.021-.92,0-1.841,0-2.761" transform="translate(-141.315 -1.261)" fill="#fff"/>
      <path id="Path_12" data-name="Path 12" d="M170.357,14.561c0-1.415,0-2.83,0-4.245a1.686,1.686,0,1,1,3.367-.013q.007,4.313,0,8.625a1.684,1.684,0,1,1-3.366.012c-.008-1.46,0-2.919,0-4.38" transform="translate(-83.804 -4.2)" fill="#fff"/>
      <path id="Path_13" data-name="Path 13" d="M246.835,8.193a5.35,5.35,0,0,0-1.672-2.708c-2.146-1.855-4.8-1.7-7.213.481,0-1.533.018-2.97-.007-4.406a1.683,1.683,0,0,0-3.357,0q-.022,6.668,0,13.336a1.619,1.619,0,0,0,1.6,1.579,1.7,1.7,0,0,0,1.181-.394A2.138,2.138,0,0,0,238,14.938a5.156,5.156,0,0,0,8.749-2.039,8.225,8.225,0,0,0,.084-4.706m-4.217,4.873a2.717,2.717,0,0,1-4.133-.648,3.646,3.646,0,0,1-.008-4.009,2.738,2.738,0,0,1,4.731.04,3.887,3.887,0,0,1,.541,1.982,3.491,3.491,0,0,1-1.131,2.635" transform="translate(-115.396 0)" fill="#fff"/>
      <path id="Path_14" data-name="Path 14" d="M110.921,13.138a4.179,4.179,0,0,0-2.988-4.319,9.972,9.972,0,0,0-6.089.275,1.325,1.325,0,0,0-.894.934,1.391,1.391,0,0,0,1.843,1.688,7.542,7.542,0,0,1,3.128-.251,1.894,1.894,0,0,1,1.724,1.636c.064.371.075.6-.458.44a8.392,8.392,0,0,0-4.065-.177,3.537,3.537,0,0,0-3.14,4A3.51,3.51,0,0,0,103.3,20.74a4.865,4.865,0,0,0,4.274-1.336,1.788,1.788,0,0,0,2.085,1.214c.812-.167,1.263-.838,1.264-1.883,0-1.865.015-3.731,0-5.6m-3.208,3.094a1.944,1.944,0,0,1-1.3,1.933,2.528,2.528,0,0,1-2.681-.175,1.462,1.462,0,0,1,.411-2.446,4.235,4.235,0,0,1,3.335.079c.258.1.245.128.237.609" transform="translate(-49.183 -4.164)" fill="#fff"/>
      <path id="Path_15" data-name="Path 15" d="M309.267,15.58c1.032.024,2.065.008,3.1.008v0h2.963A1.515,1.515,0,0,0,317,13.921a5.653,5.653,0,0,0-6.658-5.631,5.914,5.914,0,0,0-4.931,6.071,5.645,5.645,0,0,0,3.291,5.632,6.391,6.391,0,0,0,6.86-.635,1.356,1.356,0,1,0-1.576-2.2,4.624,4.624,0,0,1-1.13.583,2.979,2.979,0,0,1-3.942-1.678c-.139-.4-.062-.5.352-.486M308.851,13a2.546,2.546,0,0,1,2.628-2.045,2.507,2.507,0,0,1,2.243,2.54c-1.526,0-3.049-.014-4.571.008-.473.007-.374-.232-.3-.5" transform="translate(-150.243 -4.034)" fill="#fff"/>
      <path id="Path_16" data-name="Path 16" d="M210.945,15.572c.985.053,1.975.014,2.963.013s1.975.007,2.963,0a1.505,1.505,0,0,0,1.669-1.665,5.65,5.65,0,0,0-6.661-5.625,5.916,5.916,0,0,0-4.926,6.075,5.643,5.643,0,0,0,3.3,5.628,6.383,6.383,0,0,0,6.858-.642,1.355,1.355,0,1,0-1.585-2.19,4.58,4.58,0,0,1-1.131.582,2.994,2.994,0,0,1-3.865-1.5c-.2-.463-.246-.712.418-.677m-.591-2.471a2.633,2.633,0,0,1,2.492-2.15,2.482,2.482,0,0,1,2.393,2.143c.079.367-.027.415-.341.408-.717-.014-1.435,0-2.152,0-.673,0-1.345-.012-2.018.006-.307.008-.451-.04-.375-.4" transform="translate(-101.808 -4.036)" fill="#fff"/>
      <path id="Path_17" data-name="Path 17" d="M143.853,54.8a4.55,4.55,0,0,1,3.978-2.164,4.19,4.19,0,0,1,4.465,4.348c.037,2.2.012,4.405.006,6.608,0,.7-.307,1.047-.878,1.046s-.866-.342-.867-1.048q-.007-2.827,0-5.654a5.138,5.138,0,0,0-.213-1.613,2.946,2.946,0,0,0-3.066-2.1,3.374,3.374,0,0,0-3.255,2.424,5.472,5.472,0,0,0-.171,1.55q0,2.657,0,5.314c0,.783-.261,1.118-.858,1.129s-.889-.339-.889-1.095q0-4.837,0-9.674c0-.752.3-1.108.895-1.093.565.014.84.359.853,1.076,0,.248,0,.5,0,.947" transform="translate(-69.906 -25.894)" fill="#fff"/>
      <path id="Path_18" data-name="Path 18" d="M116.755,54.806a4.529,4.529,0,0,1,3.967-2.169,4.184,4.184,0,0,1,4.476,4.335c.043,2.225.015,4.451.006,6.677,0,.645-.32.984-.865.989-.577.006-.877-.338-.879-1.035q-.007-2.827,0-5.655a5.2,5.2,0,0,0-.21-1.613,2.942,2.942,0,0,0-3.059-2.112,3.369,3.369,0,0,0-3.263,2.412,5.431,5.431,0,0,0-.174,1.55c0,1.84,0,3.679,0,5.519a.836.836,0,0,1-.582.9.867.867,0,0,1-1.027-.327,1.009,1.009,0,0,1-.141-.65q0-4.906,0-9.811c0-.7.31-1.044.883-1.034s.849.356.862,1.064c0,.249,0,.5,0,.963" transform="translate(-56.576 -25.894)" fill="#fff"/>
      <path id="Path_19" data-name="Path 19" d="M306.172,54.8a4.537,4.537,0,0,1,3.977-2.167,4.19,4.19,0,0,1,4.467,4.345c.038,2.2.012,4.406.005,6.608,0,.7-.306,1.048-.876,1.048s-.867-.343-.868-1.046q-.006-2.827,0-5.655a5.122,5.122,0,0,0-.213-1.612,2.943,2.943,0,0,0-3.065-2.1,3.366,3.366,0,0,0-3.255,2.421,5.219,5.219,0,0,0-.172,1.482q.005,2.623,0,5.246c0,.915-.232,1.254-.858,1.266s-.89-.338-.891-1.23q0-4.7,0-9.4c0-.886.263-1.244.9-1.228.6.015.847.361.854,1.211,0,.2,0,.405,0,.815" transform="translate(-149.757 -25.894)" fill="#fff"/>
      <path id="Path_20" data-name="Path 20" d="M334.7,64.773a8.145,8.145,0,0,1-4.581-1.333c-.522-.338-.654-.809-.354-1.2a.776.776,0,0,1,1.191-.129,6.238,6.238,0,0,0,3.288,1.16,3.989,3.989,0,0,0,.948-.059,1.9,1.9,0,0,0,1.64-1.595c.088-.74-.3-1.316-1.265-1.719-.708-.295-1.46-.484-2.186-.737a13.118,13.118,0,0,1-1.517-.591,2.7,2.7,0,0,1-1.7-2.425,3.064,3.064,0,0,1,1.581-2.952,5.356,5.356,0,0,1,4.028-.38,7.674,7.674,0,0,1,1.783.655c.6.3.8.74.566,1.192s-.682.552-1.288.232a5.7,5.7,0,0,0-3.053-.78,2.3,2.3,0,0,0-1.323.471,1.366,1.366,0,0,0,.072,2.339,8.193,8.193,0,0,0,2.194.884,11.632,11.632,0,0,1,2.089.807,2.825,2.825,0,0,1,1.679,2.724,3.2,3.2,0,0,1-1.734,2.878,4.21,4.21,0,0,1-2.06.559" transform="translate(-162.145 -25.876)" fill="#fff"/>
      <path id="Path_21" data-name="Path 21" d="M200.314,62.416c.253-.146.27-.39.354-.588q1.709-4.07,3.411-8.143c.151-.361.3-.717.764-.777.763-.1,1.2.58.86,1.38-.606,1.415-1.24,2.818-1.863,4.226q-1.182,2.67-2.365,5.341c-.218.5-.458.923-1.114.922s-.9-.421-1.119-.919q-2.077-4.689-4.16-9.375a1.277,1.277,0,0,1-.108-1.114.844.844,0,0,1,.84-.469.9.9,0,0,1,.845.671c.7,1.693,1.394,3.392,2.093,5.087.515,1.249,1.036,2.5,1.562,3.759" transform="translate(-95.871 -26.022)" fill="#fff"/>
      <path id="Path_22" data-name="Path 22" d="M246.227,55.081c0-1.113-.018-2.226.009-3.339.01-.415-.1-.583-.532-.531a1.521,1.521,0,0,1-.673-.041.707.707,0,0,1-.482-.807.731.731,0,0,1,.723-.679c.955-.129.955-.132.955-1.121,0-.523-.014-1.046,0-1.567.02-.554.3-.916.88-.9a.818.818,0,0,1,.863.922c0,.7.031,1.41-.01,2.112-.027.468.147.571.577.553.748-.032,1.5,0,2.248-.009.55,0,.969.193.967.793,0,.617-.442.766-.986.755-.772-.015-1.544.009-2.317-.008-.324-.008-.49.04-.486.432.02,2.158-.014,4.316.021,6.473.025,1.484,1,2.111,2.676,1.757a.772.772,0,0,1,.942.311.679.679,0,0,1-.192.963,3.476,3.476,0,0,1-5.084-1.853,13.026,13.026,0,0,1-.1-2.444c-.016-.59,0-1.181,0-1.772" transform="translate(-120.299 -22.676)" fill="#fff"/>
      <path id="Path_23" data-name="Path 23" d="M266.507,58.915q0,2.383,0,4.766c0,.775-.269,1.1-.88,1.1-.566-.007-.865-.356-.866-1.059q-.007-4.868,0-9.736c0-.7.306-1.057.862-1.066.6-.01.883.341.885,1.1q0,2.451,0,4.9" transform="translate(-130.244 -26.031)" fill="#fff"/>
      <path id="Path_24" data-name="Path 24" d="M105.509,58.915q0,2.383,0,4.766c0,.775-.269,1.1-.88,1.1-.566-.007-.865-.356-.866-1.059q-.007-4.868,0-9.736c0-.7.306-1.057.862-1.066.6-.01.883.341.885,1.1q0,2.451,0,4.9" transform="translate(-51.043 -26.031)" fill="#fff"/>
      <path id="Path_25" data-name="Path 25" d="M105.515,45.411a.929.929,0,0,1-1.056,1.028c-.669-.017-1-.381-.989-1.094a.907.907,0,0,1,1.053-1.021c.676.015,1,.371.992,1.087" transform="translate(-50.9 -21.805)" fill="#fff"/>
      <path id="Path_26" data-name="Path 26" d="M264.447,45.378c0-.714.331-1.056,1.02-1.054a.922.922,0,0,1,1.025,1.054,1.023,1.023,0,1,1-2.045,0" transform="translate(-130.091 -21.805)" fill="#fff"/>
      <path id="Path_27" data-name="Path 27" d="M229.719,56.831a3.877,3.877,0,0,0-3.287-3.8,8.773,8.773,0,0,0-4.817.406c-.848.311-1.16.711-.962,1.208.208.521.616.578,1.525.247a5.958,5.958,0,0,1,3.992-.234,2.742,2.742,0,0,1,1.823,3.266c-.087-.023-.173-.048-.261-.069a10.579,10.579,0,0,0-5.512-.042,3.53,3.53,0,0,0-.039,6.787,5.335,5.335,0,0,0,5.913-1.6c0,.375,0,.624,0,.873a.756.756,0,0,0,.807.876.746.746,0,0,0,.848-.834c0-2.361.042-4.723-.03-7.083M223.4,63.4a2.286,2.286,0,0,1-2-2.152,2.18,2.18,0,0,1,1.643-2.224,7.772,7.772,0,0,1,3.7-.088c.134.019.265.06.4.085.954.179.954.179.953,1.141,0,2.262-2.215,3.79-4.688,3.238" transform="translate(-108.05 -26.006)" fill="#fff"/>
      <path id="Path_28" data-name="Path 28" d="M173.876,52.613a5.959,5.959,0,0,0-6.015,6.054,5.871,5.871,0,0,0,5.935,6.1,6.076,6.076,0,0,0,.08-12.151m-.092,10.582a4.536,4.536,0,0,1,.041-9.043A4.444,4.444,0,0,1,178.08,58.8a4.256,4.256,0,0,1-4.3,4.4" transform="translate(-82.577 -25.882)" fill="#fff"/>
      <path id="Path_29" data-name="Path 29" d="M280.657,52.613a5.957,5.957,0,0,0-6.014,6.056,5.87,5.87,0,0,0,5.936,6.095,6.076,6.076,0,0,0,.079-12.15m-.128,10.58a4.536,4.536,0,0,1,.112-9.04,4.448,4.448,0,0,1,4.218,4.68,4.247,4.247,0,0,1-4.33,4.36" transform="translate(-135.107 -25.882)" fill="#fff"/>
    </g>
  </g>
</svg>
