<?xml version="1.0" encoding="utf-8"?>
<!-- Generator: Adobe Illustrator 26.5.0, SVG Export Plug-In . SVG Version: 6.00 Build 0)  -->
<svg version="1.1" id="Layer_1" xmlns="http://www.w3.org/2000/svg" xmlns:xlink="http://www.w3.org/1999/xlink" x="0px" y="0px"
	 viewBox="0 0 290.97 281.42" style="enable-background:new 0 0 290.97 281.42;" xml:space="preserve">
<style type="text/css">
	.st0{fill:#FFFFFF;}
	.st1{fill:#F58B1F;}
</style>
<g>
	<path class="st0" d="M252.44,157.04c-6.89-3.32-13.8-4.03-20.7,0.58c-8.1,5.41-15.65,11.44-22.51,18.35
		c-2.99,3.02-6.35,5.48-10.8,5.49c-2.53,0.01-5.09-0.36-7.6-0.78c-18.35-3.05-36.01-8.5-53.23-15.46
		c-7.06-2.85-14.32-4.88-21.93-5.39c-13.75-0.91-26.2,2.87-37.43,10.77c-2.38,1.68-4.63,3.54-6.94,5.32
		c-0.73,0.56-1.22,0.91-1.7-0.37c-1.01-2.67-2.33-3.32-5.08-2.59c-9.05,2.41-18.08,4.9-27.14,7.28c-1.45,0.38-2.4,1.21-3.24,2.31
		c0,0.88,0,1.75,0,2.63c2.09,6.18,3.51,12.55,5.23,18.84c3.82,14,7.56,28.02,11.26,42.05c0.42,1.61,1.15,2.88,2.35,3.95
		c1.02,0,2.04,0,3.07,0c0.13-0.45,0.54-0.39,0.88-0.48c8.55-2.3,17.1-4.6,25.65-6.92c3.75-1.02,4.46-2.3,3.45-6.03
		c-0.13-0.49-0.16-1.03-0.38-1.47c-0.53-1.07-0.09-1.54,0.88-1.98c3.51-1.59,6.98-3.24,10.45-4.9c1.48-0.71,2.99-1.06,4.64-1.03
		c6.31,0.08,12.4,1.52,18.51,2.91c9.93,2.26,19.5,5.74,29.35,8.27c9.05,2.33,18.2,3.2,27.47,1.12c5.51-1.23,10.07-4.27,14.81-7.15
		c8.28-5.01,16.63-9.91,24.69-15.27c6.23-4.14,12.88-7.79,17.77-13.69c8.24-9.95,15.48-20.64,22.47-31.48
		C260.38,166.2,258.58,160,252.44,157.04z M77.58,236.64c-6.59,1.77-13.19,3.5-19.77,5.29c-1.45,0.39-1.13-0.85-1.29-1.41
		c-2.06-7.49-4.06-14.99-6.07-22.49c-2.65-9.88-5.27-19.78-7.98-29.65c-0.44-1.59-0.25-2.16,1.51-2.58
		c6.06-1.47,12.07-3.18,18.08-4.84c1.07-0.29,1.62-0.32,1.99,1.05c4.69,17.68,9.47,35.33,14.22,52.99c0.06,0.21,0.1,0.43,0.2,0.86
		C78.63,236.39,78.07,236.51,77.58,236.64z M251.15,167.01c-0.28,0.59-0.47,1.23-0.83,1.77c-6.5,9.67-12.98,19.36-20.24,28.5
		c-2.86,3.6-6.33,6.42-10.1,8.95c-10.45,7.03-21.07,13.78-32.01,20.02c-1.7,0.97-3.23,2.23-4.92,3.23
		c-5.24,3.08-10.99,4.1-16.99,3.98c-8.8,0.1-17.08-2.44-25.36-5.01c-9.85-3.05-19.77-5.85-29.98-7.53
		c-3.9-0.64-7.81-0.93-11.76-0.66c-1.46,0.1-2.84,0.53-4.17,1.17c-3.34,1.61-6.71,3.14-10.06,4.73c-0.89,0.42-1.35,0.68-1.71-0.71
		c-3.53-13.41-7.17-26.79-10.76-40.18c-0.17-0.62-0.63-1.34,0.38-1.86c3.01-1.55,5.42-3.92,8.11-5.92
		c16.51-12.23,34.27-13.64,53.05-6.1c17.97,7.21,36.35,13.07,55.5,16.21c3.05,0.5,6.04,0.69,8.13,3.44c1.4,1.85,1.45,2.39-0.61,3.52
		c-5.43,2.97-11.14,3.73-17.29,2.74c-10.56-1.69-20.99-4.14-31.63-5.3c-4.95-0.54-9.75,0.12-14.19,2.48
		c-2.06,1.09-2.69,2.94-1.84,4.75c0.78,1.67,2.75,2.65,4.36,1.81c5.41-2.81,11.01-2.12,16.66-1.21c9.62,1.54,19.14,3.71,28.83,4.87
		c7.07,0.84,13.61-0.86,19.57-4.6c4.44-2.78,5.39-6.48,3.2-11.25c-0.4-0.87-0.42-1.18,0.56-1.55c3.89-1.48,7.01-4.09,9.92-7
		c6.72-6.73,14.04-12.72,22.22-17.61c3.14-1.88,10.53-1.1,13.19,1.39C251.26,164.91,251.71,165.82,251.15,167.01z"/>
	<path class="st0" d="M49.85,245.62c-1.82-7.06-3.73-14.09-5.63-21.12c-3.04-11.25-5.95-22.54-9.09-33.77
		c-0.51-1.83-0.48-3.73-0.99-5.54c0,21.1,0.02,42.2-0.04,63.3c0,1.31,0.26,1.59,1.57,1.57c5.77-0.09,11.53-0.04,17.3-0.04
		C50.88,249.3,50.33,247.47,49.85,245.62z"/>
	<path class="st0" d="M39.37,204.02c-1.72-6.28-3.14-12.65-5.23-18.84c0.52,1.81,0.48,3.72,0.99,5.54
		c3.13,11.23,6.05,22.52,9.09,33.77c1.9,7.03,3.81,14.06,5.63,21.12c0.48,1.85,1.03,3.69,3.13,4.4c-1.21-1.07-1.93-2.34-2.35-3.95
		C46.93,232.04,43.19,218.02,39.37,204.02z"/>
	<path class="st1" d="M117.29,101.74c0.04,4.83,2.75,7.52,7.63,7.56c2.99,0.03,5.99,0.07,8.98-0.03c1.09-0.03,1.51,0.41,1.86,1.34
		c0.77,2.04,1.56,4.07,2.5,6.03c0.47,0.99,0.48,1.6-0.37,2.4c-2.29,2.15-4.49,4.39-6.68,6.64c-3.04,3.13-3.05,7.01-0.01,10.09
		c3.95,4,7.91,7.98,11.92,11.93c3.11,3.06,6.95,3.05,10.09,0.02c1.84-1.77,3.74-3.51,5.39-5.44c1.51-1.77,2.86-2.49,5.03-0.98
		c1.22,0.85,2.75,1.37,4.21,1.73c1.54,0.38,1.85,1.17,1.8,2.62c-0.11,2.92-0.08,5.84-0.02,8.76c0.09,4.45,2.84,7.19,7.29,7.22
		c5.55,0.04,11.1,0.04,16.64,0c4.43-0.03,7.07-2.61,7.22-7.03c0.08-2.33,0.02-4.67,0.02-7.01c0-3.78,0.01-3.76,3.44-5.13
		c1.28-0.51,2.6-0.98,3.78-1.67c1.12-0.66,1.83-0.6,2.74,0.39c2.03,2.2,4.2,4.27,6.33,6.37c3.3,3.25,7.13,3.28,10.4,0.04
		c3.89-3.85,7.76-7.72,11.61-11.62c3.25-3.28,3.24-7.08-0.01-10.42c-2.14-2.19-4.31-4.36-6.51-6.5c-0.7-0.68-0.98-1.2-0.47-2.22
		c1.01-2.01,1.85-4.1,2.61-6.22c0.36-1.01,0.84-1.33,1.89-1.31c3.14,0.07,6.28,0.08,9.42,0.01c4.43-0.11,7.13-2.91,7.15-7.35
		c0.02-5.47,0.02-10.95,0-16.42c-0.01-4.65-2.59-7.28-7.28-7.4c-2.55-0.07-5.12-0.15-7.66,0.03c-2.18,0.15-3.52-0.3-4-2.7
		c-0.31-1.53-1.03-3.05-1.86-4.39c-0.86-1.37-0.46-2.13,0.58-3.1c2.13-1.99,4.17-4.09,6.21-6.18c3.13-3.22,3.17-7.09,0.05-10.27
		c-3.89-3.96-7.81-7.88-11.77-11.77c-3.18-3.13-7.09-3.11-10.27,0.01c-2.19,2.15-4.4,4.28-6.48,6.52c-0.87,0.93-1.53,0.94-2.6,0.4
		c-1.81-0.92-3.67-1.81-5.61-2.36c-1.47-0.42-1.73-1.15-1.7-2.49c0.08-3.06,0.11-6.13,0-9.2c-0.16-4.28-2.89-6.86-7.13-6.87
		c-5.55-0.01-11.1-0.01-16.64,0c-4.54,0.01-7.31,2.75-7.37,7.35c-0.04,2.99-0.06,5.99,0.02,8.98c0.03,1.19-0.27,1.79-1.51,2.18
		c-2,0.64-3.94,1.5-5.81,2.45c-1.12,0.57-1.76,0.38-2.59-0.5c-2.15-2.28-4.37-4.51-6.65-6.66c-3.06-2.91-6.95-2.85-9.94,0.1
		c-4,3.95-7.97,7.93-11.92,11.92c-3.03,3.07-3.03,6.99-0.01,10.09c1.88,1.94,3.69,3.97,5.76,5.69c1.73,1.43,1.88,2.66,0.74,4.53
		c-0.89,1.46-1.38,3.19-1.93,4.84c-0.35,1.05-0.87,1.45-2.02,1.42c-3.28-0.08-6.57-0.12-9.85,0.04c-4.09,0.2-6.53,2.84-6.61,6.93
		c-0.05,2.85-0.01,5.69-0.01,8.54C117.29,96.34,117.27,99.04,117.29,101.74z M125.83,85.24c3.79,0.06,7.59,0,11.39,0.03
		c2.27,0.02,3.68-0.93,4.3-3.19c1.05-3.87,2.55-7.57,4.59-11.04c1.15-1.96,0.92-3.69-0.75-5.31c-3.05-2.94-6.02-5.95-9.25-9.14
		c3.81-3.78,7.52-7.4,11.16-11.08c0.76-0.76,1.18-0.67,1.88,0.05c2.64,2.73,5.33,5.4,8.03,8.07c2,1.98,3.15,2.16,5.63,0.79
		c3.32-1.84,6.77-3.3,10.44-4.3c2.84-0.77,3.59-1.89,3.6-4.91c0.01-3.65,0.06-7.3-0.03-10.95c-0.03-1.28,0.4-1.56,1.6-1.55
		c4.6,0.06,9.2,0.06,13.79,0c1.13-0.01,1.49,0.27,1.47,1.44c-0.07,3.79-0.04,7.59-0.02,11.39c0.01,2.65,0.74,3.66,3.29,4.41
		c3.85,1.13,7.54,2.6,11.01,4.64c1.87,1.1,3.56,0.88,5.12-0.72c2.75-2.82,5.58-5.57,8.34-8.38c0.6-0.61,0.97-0.83,1.7-0.1
		c3.69,3.73,7.45,7.39,11.29,11.19c-3.1,3.07-6.07,5.98-9.01,8.91c-2.1,2.1-2.29,3.25-0.88,5.79c1.84,3.31,3.29,6.78,4.32,10.44
		c0.79,2.81,1.82,3.53,4.69,3.53c3.72,0.01,7.45,0.04,11.17-0.02c1.1-0.02,1.51,0.22,1.49,1.42c-0.07,4.67-0.07,9.34,0,14.01
		c0.02,1.17-0.35,1.46-1.48,1.44c-3.72-0.07-7.44-0.04-11.17-0.02c-2.89,0.01-3.91,0.74-4.7,3.54c-1.05,3.73-2.54,7.25-4.43,10.63
		c-1.28,2.29-1.06,3.52,0.83,5.44c2.62,2.65,5.23,5.29,7.91,7.88c0.81,0.78,1.12,1.24,0.13,2.2c-3.42,3.29-6.75,6.66-10.06,10.06
		c-0.73,0.75-1.11,0.73-1.83-0.01c-2.63-2.73-5.34-5.39-8.03-8.07c-2-1.98-3.21-2.2-5.62-0.84c-3.44,1.93-7.05,3.46-10.85,4.48
		c-2.27,0.61-3.25,2-3.24,4.26c0.02,3.72-0.04,7.45,0.03,11.17c0.02,1.23-0.13,1.8-1.61,1.76c-4.6-0.11-9.2-0.08-13.79-0.01
		c-1.16,0.02-1.48-0.32-1.46-1.47c0.07-3.72,0.04-7.44,0.02-11.17c-0.02-2.78-0.74-3.78-3.4-4.58c-3.77-1.13-7.42-2.54-10.82-4.53
		c-1.96-1.15-3.68-0.95-5.3,0.73c-2.69,2.78-5.48,5.46-8.17,8.24c-0.68,0.71-1.08,0.85-1.85,0.07c-3.36-3.45-6.77-6.85-10.21-10.22
		c-0.74-0.72-0.72-1.13,0.03-1.85c2.79-2.68,5.46-5.48,8.24-8.17c1.67-1.62,1.89-3.34,0.75-5.31c-1.99-3.41-3.42-7.05-4.54-10.82
		c-0.8-2.67-1.77-3.38-4.57-3.4c-3.72-0.02-7.45-0.05-11.17,0.02c-1.13,0.02-1.5-0.27-1.48-1.44c0.07-4.67,0.07-9.34,0-14.01
		C124.31,85.45,124.73,85.22,125.83,85.24z"/>
	<path class="st1" d="M78.27,235.01c-4.75-17.66-9.53-35.32-14.22-52.99c-0.36-1.37-0.92-1.34-1.99-1.05
		c-6.02,1.66-12.02,3.36-18.08,4.84c-1.75,0.43-1.94,1-1.51,2.58c2.71,9.87,5.33,19.76,7.98,29.65c2.01,7.5,4.01,15.01,6.07,22.49
		c0.15,0.56-0.16,1.8,1.29,1.41c6.58-1.79,13.18-3.52,19.77-5.29c0.48-0.13,1.05-0.25,0.88-0.77
		C78.37,235.43,78.33,235.22,78.27,235.01z"/>
	<path class="st0" d="M184.95,126.36c17.95,0.28,32.69-14.32,32.94-32.62c0.24-17.69-14.45-32.54-32.38-32.71
		c-17.95-0.17-32.8,14.4-32.98,32.37C152.35,111.3,166.9,126.08,184.95,126.36z M185.62,68.18c14.06,0.08,25.22,11.61,25.1,25.94
		c-0.11,13.85-11.62,25.14-25.55,25.05c-14.27-0.09-25.49-11.4-25.41-25.61C159.83,79.25,171.2,68.09,185.62,68.18z"/>
</g>
</svg>
