<svg xmlns="http://www.w3.org/2000/svg" width="74.504" height="96.405" viewBox="0 0 74.504 96.405">
  <g id="Group_22" data-name="Group 22" transform="translate(-624.337 -575.067)">
    <g id="Group_21" data-name="Group 21" transform="translate(624.337 575.067)">
      <g id="Group_20" data-name="Group 20" transform="translate(0 0)">
        <path id="Path_17" data-name="Path 17" d="M36.62,21.168c-2.285.006-4.576-.047-6.858.035a19,19,0,0,0-11.355,4.321A20.366,20.366,0,0,0,13.583,31.1C9.08,38.643,4.595,46.2.054,53.72A9.871,9.871,0,0,1-9.68,58.807,10.439,10.439,0,0,1-18.9,49.749a11.007,11.007,0,0,1,1.51-7.408Q-8.644,27.705.1,13.069C3.343,7.654,6.543,2.212,9.829-3.174a15.565,15.565,0,0,1,11.1-7.586A14.63,14.63,0,0,1,31.28-8.8,10.989,10.989,0,0,1,36.561-.392,9.3,9.3,0,0,1,36.629.784q0,10.177,0,20.357Z" transform="translate(19.016 10.992)" fill="#ff8d28"/>
        <path id="Path_18" data-name="Path 18" d="M0,.047.006.021C2.112.027,4.222-.116,6.317.077A13.284,13.284,0,0,1,17.189,7.394a13.905,13.905,0,0,1,1.679,6.8q-.009,6.89,0,13.774a9.74,9.74,0,0,1-7.519,9.57A9.71,9.71,0,0,1,0,28Q0,14.027,0,.047" transform="translate(55.636 32.112)" fill="#342b47"/>
        <path id="Path_19" data-name="Path 19" d="M8.675,4.535A6.72,6.72,0,0,1,2.06,11.411,6.735,6.735,0,0,1-4.5,4.523,6.738,6.738,0,0,1,2.072-2.355a6.725,6.725,0,0,1,6.6,6.89" transform="translate(65.826 12.149)" fill="#342b47"/>
        <path id="Path_20" data-name="Path 20" d="M4.337,9.057A6.764,6.764,0,0,1-2.252,2.173,6.75,6.75,0,0,1,4.527-4.7a6.752,6.752,0,0,1,6.425,6.957,6.741,6.741,0,0,1-6.615,6.8" transform="translate(39.427 45.524)" fill="#342b47"/>
      </g>
    </g>
    <g id="Group_19" data-name="Group 19" transform="translate(624.337 647.673)">
      <path id="Path_21" data-name="Path 21" d="M-.03-.054a.974.974,0,0,1-1.09-.963.975.975,0,0,1,1.1-1A.983.983,0,0,1,1.09-.947.992.992,0,0,1-.03-.054" transform="translate(21.971 2.042)" fill="#211935"/>
      <path id="Path_22" data-name="Path 22" d="M-.095-.138C.191-.96.449-1.7.7-2.442c.222-.642.425-1.293.666-1.927a.953.953,0,0,1,1.646-.393,1.135,1.135,0,0,1,.088,1.235Q2.354-1.635,1.6.256C1.246,1.14.909,2.031.534,2.9c-.655,1.52-1.72,1.848-3.219,1.38a.879.879,0,0,1-.6-1.161.808.808,0,0,1,1.1-.486,1.109,1.109,0,0,0,.62.048.572.572,0,0,0,.392-.839Q-2.257-.795-3.343-3.429a3.11,3.11,0,0,1-.121-.3A1.008,1.008,0,0,1-2.922-5.02a.924.924,0,0,1,1.283.589c.478,1.286.93,2.584,1.392,3.877.039.109.079.218.151.416" transform="translate(51.791 7.731)" fill="#211935"/>
      <path id="Path_23" data-name="Path 23" d="M-.083-.209a4.483,4.483,0,0,1-2.5-.739.879.879,0,0,1-.377-1.218.8.8,0,0,1,1.172-.215,3.2,3.2,0,0,0,2.013.564C.5-1.851.761-1.945.8-2.277S.584-2.755.332-2.85c-.38-.144-.772-.261-1.156-.4a5.809,5.809,0,0,1-.661-.259A1.942,1.942,0,0,1-2.7-5.346,2.065,2.065,0,0,1-1.481-7.413a3.822,3.822,0,0,1,3.622.361.837.837,0,0,1,.228,1.1.783.783,0,0,1-1.029.326,4.829,4.829,0,0,0-1.3-.453.992.992,0,0,0-.274-.029c-.285.045-.611.072-.669.449-.054.344.234.474.469.574.522.221,1.062.388,1.583.61a2.075,2.075,0,0,1,1.226,3A2.217,2.217,0,0,1,.311-.21a3.548,3.548,0,0,1-.394,0" transform="translate(71.89 10.341)" fill="#211935"/>
      <path id="Path_24" data-name="Path 24" d="M-.1,0A3.575,3.575,0,0,1,2.275.666a.986.986,0,0,1,.307,1.39.913.913,0,0,1-1.361.154,1.644,1.644,0,0,0-2.472.284A2.286,2.286,0,0,0-.888,5.456,1.783,1.783,0,0,0,1.25,5.409a1.492,1.492,0,0,1,.514-.294.818.818,0,0,1,.907.422.885.885,0,0,1-.149,1.089,3.283,3.283,0,0,1-1.816.909A3.613,3.613,0,0,1-3.527,4.558,3.677,3.677,0,0,1-.1,0" transform="translate(11.341 2.565)" fill="#211935"/>
      <path id="Path_25" data-name="Path 25" d="M-.1-.134C.393-1.5.875-2.861,1.362-4.218a.941.941,0,0,1,.9-.724.9.9,0,0,1,.914.578,1.126,1.126,0,0,1-.031.917Q2.093-.884,1.025,1.67a1.219,1.219,0,0,1-1.2.885,1.222,1.222,0,0,1-1.148-.9Q-2.371-.861-3.408-3.388a1.038,1.038,0,0,1,.458-1.48.982.982,0,0,1,1.361.71c.458,1.279.909,2.563,1.36,3.845.022.064.03.135.132.178" transform="translate(27.783 7.587)" fill="#211935"/>
      <path id="Path_26" data-name="Path 26" d="M-.025-.16c0-.575-.008-1.151,0-1.726,0-.222-.024-.337-.275-.382a.79.79,0,0,1-.636-.819.819.819,0,0,1,.67-.88c.216-.037.25-.116.24-.3-.011-.205-.006-.411,0-.617A.983.983,0,0,1,.97-5.923.99.99,0,0,1,1.949-4.91c.012.3-.126.7.057.861s.548.049.834.061a.856.856,0,0,1,.829.823.868.868,0,0,1-.728.918,2.253,2.253,0,0,1-.352.028c-.642.007-.642.006-.642.656,0,.795-.006,1.589,0,2.384.007.6.184.773.765.775a.814.814,0,0,1,.909.709.836.836,0,0,1-.647.974A3.072,3.072,0,0,1,1.112,3.3,1.707,1.707,0,0,1-.022,1.566c-.011-.287,0-.575,0-.862Z" transform="translate(15.746 6.717)" fill="#211935"/>
      <path id="Path_27" data-name="Path 27" d="M-.025-.16c0-.575-.008-1.151,0-1.726,0-.221-.025-.337-.275-.384a.8.8,0,0,1-.636-.861.811.811,0,0,1,.67-.839c.216-.036.249-.115.24-.3-.012-.218-.009-.439,0-.658a.98.98,0,0,1,.993-.993.989.989,0,0,1,.98,1.011c.012.3-.125.683.057.867s.549.041.834.056a.86.86,0,0,1,.829.823.869.869,0,0,1-.729.918,1.973,1.973,0,0,1-.312.029c-.681.01-.681.009-.681.737,0,.768-.006,1.535,0,2.3.007.6.184.774.765.775a.815.815,0,0,1,.91.708.838.838,0,0,1-.647.975A3.062,3.062,0,0,1,1.113,3.3,1.717,1.717,0,0,1-.022,1.525C-.035.964-.025.4-.025-.16" transform="translate(56.629 6.72)" fill="#211935"/>
      <path id="Path_28" data-name="Path 28" d="M0-.1c0-.864,0-1.727,0-2.59A.984.984,0,0,1,.983-3.778.982.982,0,0,1,1.971-2.7q0,2.631,0,5.263a.981.981,0,0,1-1,1.065A.982.982,0,0,1,0,2.571C0,1.68,0,.789,0-.1" transform="translate(20.93 6.425)" fill="#211935"/>
      <path id="Path_29" data-name="Path 29" d="M-.131-.221a1.554,1.554,0,0,1-2.42-.4,2.3,2.3,0,0,1,0-2.446,1.57,1.57,0,0,1,2.769.024A2.439,2.439,0,0,1,.531-1.83,2.173,2.173,0,0,1-.131-.221M2.338-3.2a3.289,3.289,0,0,0-.979-1.652C.1-5.98-1.449-5.884-2.863-4.554c0-.935.011-1.813,0-2.688A.952.952,0,0,0-3.85-8.2a.948.948,0,0,0-.981.953q-.015,4.069,0,8.138a.967.967,0,0,0,.938.963.964.964,0,0,0,.691-.24,1.311,1.311,0,0,0,.37-.7A2.972,2.972,0,0,0,2.289-.323,5.231,5.231,0,0,0,2.338-3.2" transform="translate(44.866 8.195)" fill="#211935"/>
      <path id="Path_30" data-name="Path 30" d="M-.126-.132A1.186,1.186,0,0,1-.888,1.048,1.428,1.428,0,0,1-2.457.941a.909.909,0,0,1,.24-1.492A2.38,2.38,0,0,1-.265-.5c.151.059.144.079.139.372M1.752-2.019A2.546,2.546,0,0,0,0-4.655a5.6,5.6,0,0,0-3.564.168.792.792,0,0,0-.523.57A.828.828,0,0,0-3.006-2.887,4.252,4.252,0,0,1-1.175-3.04a1.128,1.128,0,0,1,1.008,1c.038.226.045.367-.268.269a4.719,4.719,0,0,0-2.379-.109A2.142,2.142,0,0,0-4.651.562,2.1,2.1,0,0,0-2.706,2.618,2.772,2.772,0,0,0-.2,1.8a1.042,1.042,0,0,0,1.22.74c.475-.1.739-.512.739-1.149,0-1.138.009-2.277,0-3.414" transform="translate(4.653 7.496)" fill="#211935"/>
      <path id="Path_31" data-name="Path 31" d="M-.056-.081A1.5,1.5,0,0,1,1.482-1.329,1.506,1.506,0,0,1,2.8.221C1.9.221,1.011.213.12.226-.157.23-.1.085-.056-.081M.187,1.493c.6.015,1.209,0,1.814,0v0H3.736A.906.906,0,0,0,4.716.48a3.356,3.356,0,0,0-3.9-3.436A3.575,3.575,0,0,0-2.068.75,3.47,3.47,0,0,0-.142,4.186,3.615,3.615,0,0,0,3.873,3.8a.858.858,0,0,0,.2-1.226.773.773,0,0,0-1.125-.115,2.653,2.653,0,0,1-.662.356A1.722,1.722,0,0,1-.018,1.79c-.082-.242-.036-.3.205-.3" transform="translate(63.162 5.553)" fill="#211935"/>
      <path id="Path_32" data-name="Path 32" d="M-.055-.083A1.563,1.563,0,0,1,1.4-1.4,1.477,1.477,0,0,1,2.8-.087c.047.224-.016.253-.2.248-.42-.009-.84,0-1.259,0C.952.159.558.152.165.162-.014.166-.1.139-.055-.083M.291,1.425c.577.032,1.156.008,1.735.008s1.156,0,1.734,0A.9.9,0,0,0,4.737.416a3.352,3.352,0,0,0-3.9-3.433A3.574,3.574,0,0,0-2.045.691,3.464,3.464,0,0,0-.117,4.124,3.61,3.61,0,0,0,3.9,3.733a.857.857,0,0,0,.2-1.226A.774.774,0,0,0,2.97,2.4a2.635,2.635,0,0,1-.662.355A1.723,1.723,0,0,1,.047,1.838C-.074,1.556-.1,1.4.291,1.425" transform="translate(33.859 5.615)" fill="#211832"/>
      <path id="Path_33" data-name="Path 33" d="M-.028-.037A2.636,2.636,0,0,1,2.3-1.357,2.5,2.5,0,0,1,4.913,1.3c.021,1.344.007,2.688,0,4.032,0,.427-.179.639-.513.639s-.508-.209-.509-.64q0-1.725,0-3.45A3.259,3.259,0,0,0,3.77.893a1.728,1.728,0,0,0-1.8-1.281A1.987,1.987,0,0,0,.071,1.09a3.472,3.472,0,0,0-.1.946q0,1.621,0,3.243c0,.477-.153.682-.5.689s-.521-.207-.521-.668q0-2.951,0-5.9c0-.459.175-.676.523-.667.332.009.492.22.5.657,0,.152,0,.3,0,.578" transform="translate(13.58 17.676)" fill="#211935"/>
      <path id="Path_34" data-name="Path 34" d="M-.028-.037A2.627,2.627,0,0,1,2.293-1.361,2.5,2.5,0,0,1,4.914,1.286c.024,1.357.008,2.716,0,4.074,0,.394-.187.6-.507.6-.338,0-.514-.207-.515-.632q0-1.725,0-3.451A3.313,3.313,0,0,0,3.774.9,1.728,1.728,0,0,0,1.983-.393,1.986,1.986,0,0,0,.073,1.078a3.438,3.438,0,0,0-.1.947c0,1.122,0,2.245,0,3.368a.511.511,0,0,1-.341.548.5.5,0,0,1-.6-.2.632.632,0,0,1-.083-.4q0-2.993,0-5.987c0-.424.181-.636.517-.63s.5.217.5.649c0,.152,0,.3,0,.588" transform="translate(5.521 17.68)" fill="#211935"/>
      <path id="Path_35" data-name="Path 35" d="M-.028-.037A2.63,2.63,0,0,1,2.3-1.359,2.5,2.5,0,0,1,4.913,1.292c.022,1.344.007,2.688,0,4.033,0,.427-.18.639-.514.639S3.9,5.756,3.9,5.326q0-1.725,0-3.451A3.241,3.241,0,0,0,3.771.893,1.725,1.725,0,0,0,1.977-.39,1.981,1.981,0,0,0,.072,1.087a3.281,3.281,0,0,0-.1.9c0,1.067,0,2.134,0,3.2,0,.558-.136.766-.5.773s-.522-.206-.522-.751V-.523c0-.541.154-.759.524-.75.352.01.5.221.5.739,0,.124,0,.248,0,.5" transform="translate(61.851 17.678)" fill="#211935"/>
      <path id="Path_36" data-name="Path 36" d="M-.083-.206A4.619,4.619,0,0,1-2.764-1.02c-.306-.206-.383-.493-.207-.733a.444.444,0,0,1,.7-.079,3.557,3.557,0,0,0,1.925.708,2.252,2.252,0,0,0,.555-.036,1.138,1.138,0,0,0,.959-.974c.052-.45-.173-.8-.74-1.048-.414-.181-.854-.3-1.279-.45a7.4,7.4,0,0,1-.887-.361,1.645,1.645,0,0,1-.993-1.48,1.89,1.89,0,0,1,.926-1.8A3.016,3.016,0,0,1,.548-7.5a4.425,4.425,0,0,1,1.043.4c.349.185.466.451.332.728s-.4.337-.754.141A3.23,3.23,0,0,0-.618-6.712a1.319,1.319,0,0,0-.775.287A.853.853,0,0,0-1.352-5a4.669,4.669,0,0,0,1.284.539,6.637,6.637,0,0,1,1.222.493A1.731,1.731,0,0,1,2.139-2.3,1.969,1.969,0,0,1,1.123-.548,2.385,2.385,0,0,1-.083-.206" transform="translate(71.352 23.943)" fill="#211935"/>
      <path id="Path_37" data-name="Path 37" d="M-.088-.161C.06-.251.069-.4.118-.52q1-2.484,2-4.969c.089-.221.178-.438.447-.475.447-.06.7.354.5.843-.355.863-.726,1.72-1.091,2.578Q1.284-.913.592.716c-.128.3-.269.563-.652.562s-.526-.257-.656-.56Q-1.932-2.144-3.15-5a.808.808,0,0,1-.063-.679.492.492,0,0,1,.491-.287.534.534,0,0,1,.494.411c.412,1.032.816,2.069,1.226,3.1.3.762.606,1.524.914,2.294" transform="translate(31.49 22.37)" fill="#211935"/>
      <path id="Path_38" data-name="Path 38" d="M-.027-.152c0-.679-.01-1.358,0-2.037.006-.253-.06-.355-.31-.324a.865.865,0,0,1-.394-.025.432.432,0,0,1-.282-.492.436.436,0,0,1,.423-.414c.558-.079.558-.081.558-.684,0-.319-.008-.638,0-.956.011-.339.174-.558.516-.55a.491.491,0,0,1,.5.563c0,.429.018.861-.006,1.288-.017.285.086.349.338.338.437-.019.877,0,1.315-.006.322,0,.566.118.566.485s-.26.467-.578.461c-.452-.01-.9,0-1.356,0-.189-.006-.286.023-.284.263C1-.933.983.385,1,1.7c.014.906.583,1.288,1.566,1.072a.443.443,0,0,1,.552.19.426.426,0,0,1-.112.589A2.006,2.006,0,0,1,.034,2.42,8.225,8.225,0,0,1-.025.929c-.01-.36,0-.721,0-1.081" transform="translate(44.005 19.927)" fill="#211935"/>
      <path id="Path_39" data-name="Path 39" d="M-.028-.1q0,1.454,0,2.908c0,.472-.157.673-.515.668-.332,0-.507-.217-.507-.646q0-2.97,0-5.941c0-.423.18-.645.5-.65.349-.006.518.208.519.669,0,1,0,1.994,0,2.991" transform="translate(50.056 20.168)" fill="#211832"/>
      <path id="Path_40" data-name="Path 40" d="M-.028-.1q0,1.454,0,2.908c0,.472-.157.673-.515.668-.332,0-.507-.217-.507-.646q0-2.97,0-5.941c0-.423.18-.645.5-.65.349-.006.518.208.519.669,0,1,0,1.994,0,2.991" transform="translate(2.177 20.168)" fill="#211832"/>
      <path id="Path_41" data-name="Path 41" d="M-.033-.018A.555.555,0,0,1-.651.609C-1.043.6-1.235.377-1.23-.059s.208-.631.616-.622.586.227.581.663" transform="translate(2.269 14.424)" fill="#211935"/>
      <path id="Path_42" data-name="Path 42" d="M0-.018C0-.454.195-.662.6-.661s.6.217.6.643S.99.632.6.631,0,.408,0-.018" transform="translate(48.911 14.403)" fill="#211935"/>
      <path id="Path_43" data-name="Path 43" d="M-.061-.178A1.373,1.373,0,0,1-1.232-1.492a1.325,1.325,0,0,1,.96-1.357A4.37,4.37,0,0,1,1.893-2.9c.078.012.155.037.233.052.558.109.558.109.558.7A2.12,2.12,0,0,1-.061-.178m3.7-4.01A2.337,2.337,0,0,0,1.712-6.5a4.934,4.934,0,0,0-2.821.247c-.5.19-.679.434-.562.737.121.318.36.353.892.152a3.356,3.356,0,0,1,2.337-.143A1.684,1.684,0,0,1,2.624-3.52l-.152-.041A5.934,5.934,0,0,0-.755-3.586,2.026,2.026,0,0,0-2.263-1.546,2.039,2.039,0,0,0-.777.554,3.041,3.041,0,0,0,2.684-.425c0,.229,0,.38,0,.533,0,.333.146.526.472.534a.446.446,0,0,0,.5-.509c0-1.44.024-2.882-.018-4.322" transform="translate(37.85 22.998)" fill="#211935"/>
      <path id="Path_44" data-name="Path 44" d="M-.1-.179A2.613,2.613,0,0,1-2.523-2.972,2.591,2.591,0,0,1-.073-5.7,2.667,2.667,0,0,1,2.418-2.863,2.547,2.547,0,0,1-.1-.179m.054-6.457A3.565,3.565,0,0,0-3.564-2.943,3.517,3.517,0,0,0-.089.778,3.559,3.559,0,0,0,3.458-2.929a3.544,3.544,0,0,0-3.5-3.707" transform="translate(23.751 22.948)" fill="#211935"/>
      <path id="Path_45" data-name="Path 45" d="M-.1-.179A2.619,2.619,0,0,1-2.5-2.992,2.587,2.587,0,0,1-.029-5.7,2.673,2.673,0,0,1,2.439-2.84,2.541,2.541,0,0,1-.1-.179m.075-6.456a3.564,3.564,0,0,0-3.52,3.7A3.515,3.515,0,0,0-.067.779,3.558,3.558,0,0,0,3.479-2.929a3.543,3.543,0,0,0-3.5-3.706" transform="translate(55.484 22.947)" fill="#211935"/>
    </g>
  </g>
</svg>
